# xmcd CD database file
#
# Track frame offsets:
#	150
#	19795
#	40181
#	58463
#	81368
#	97320
#	114166
#	135283
#	151774
#	171018
#	189274
#	204701
#	229595
#
# Disc length: 3329 seconds
#
# Revision: 0
# Processed by: cddbd v1.5.2PL0 Copyright (c) Steve Scherf et al.
# Submitted via: CDex 1.51
#
DISCID=a40cff0d
DTITLE=Emmylou Harris - All I Intended To Be
DYEAR=2008
DGENRE=Country
TTITLE0=Shores Of White Sand
TTITLE1=Hold On
TTITLE2=Moon Song
TTITLE3=Broken Man's Lament
TTITLE4=Gold
TTITLE5=How She Could Sing Wildwood Flower
TTITLE6=All That You Have Is Your Soul
TTITLE7=Take That Ride
TTITLE8=Old Five And Dimers Like Me
TTITLE9=Kern River
TTITLE10=Not Enough
TTITLE11=Sailing Round The Room
TTITLE12=Beyond The Great Divide
EXTD=YEAR: 2008
EXTT0=
EXTT1=
EXTT2=
EXTT3=
EXTT4=
EXTT5=
EXTT6=
EXTT7=
EXTT8=
EXTT9=
EXTT10=
EXTT11=
EXTT12=
PLAYORDER=
